HIERARCHY
ROOT Hips
{
	OFFSET -21.947001 39.810204 44.525997
	CHANNELS 6 Xposition Yposition Zposition Zrotation Xrotation Yrotation
	JOINT Chest
	{
		OFFSET -0.201599 0.334099 6.453201
		CHANNELS 6 Xposition Yposition Zposition Zrotation Xrotation Yrotation
		JOINT Chest2
		{
			OFFSET 0.000000 0.000000 3.568001
			CHANNELS 6 Xposition Yposition Zposition Zrotation Xrotation Yrotation
			JOINT Neck
			{
				OFFSET 0.000000 0.000000 8.296402
				CHANNELS 6 Xposition Yposition Zposition Zrotation Xrotation Yrotation
				JOINT Head
				{
					OFFSET 0.000000 0.000000 2.173901
					CHANNELS 6 Xposition Yposition Zposition Zrotation Xrotation Yrotation
					End Site
					{
						OFFSET 0.000000 0.000000 7.891998
					}
				}
			}
			JOINT LeftCollar
			{
				OFFSET 1.927601 0.221401 6.049000
				CHANNELS 6 Xposition Yposition Zposition Zrotation Xrotation Yrotation
				JOINT LeftShoulder
				{
					OFFSET 4.959700 0.000000 0.000000
					CHANNELS 6 Xposition Yposition Zposition Zrotation Xrotation Yrotation
					JOINT LeftElbow
					{
						OFFSET 0.000000 0.000000 -8.654202
						CHANNELS 6 Xposition Yposition Zposition Zrotation Xrotation Yrotation
						JOINT LeftWrist
						{
							OFFSET 0.000000 0.000000 -13.864101
							CHANNELS 6 Xposition Yposition Zposition Zrotation Xrotation Yrotation
							End Site
							{
								OFFSET 0.000000 0.000000 -2.173901
							}
						}
					}
				}
			}
			JOINT RightCollar
			{
				OFFSET -3.155701 -0.764999 6.687801
				CHANNELS 6 Xposition Yposition Zposition Zrotation Xrotation Yrotation
				JOINT RightShoulder
				{
					OFFSET -3.592899 0.000000 0.000000
					CHANNELS 6 Xposition Yposition Zposition Zrotation Xrotation Yrotation
					JOINT RightElbow
					{
						OFFSET 0.000000 0.000000 -10.352398
						CHANNELS 6 Xposition Yposition Zposition Zrotation Xrotation Yrotation
						JOINT RightWrist
						{
							OFFSET 0.000000 0.000000 -12.750301
							CHANNELS 6 Xposition Yposition Zposition Zrotation Xrotation Yrotation
							End Site
							{
								OFFSET 0.000000 0.000000 -2.173901
							}
						}
					}
				}
			}
		}
	}
	JOINT LeftHip
	{
		OFFSET 2.460600 -0.518101 -2.735500
		CHANNELS 6 Xposition Yposition Zposition Zrotation Xrotation Yrotation
		JOINT LeftKnee
		{
			OFFSET 0.000000 -0.000004 -17.005899
			CHANNELS 6 Xposition Yposition Zposition Zrotation Xrotation Yrotation
			JOINT LeftAnkle
			{
				OFFSET 0.000000 0.000000 -19.194401
				CHANNELS 6 Xposition Yposition Zposition Zrotation Xrotation Yrotation
				End Site
				{
					OFFSET 0.000000 -8.134600 0.000000
				}
			}
		}
	}
	JOINT RightHip
	{
		OFFSET -3.115499 -0.679600 -2.320301
		CHANNELS 6 Xposition Yposition Zposition Zrotation Xrotation Yrotation
		JOINT RightKnee
		{
			OFFSET 0.000000 -0.000004 -17.680401
			CHANNELS 6 Xposition Yposition Zposition Zrotation Xrotation Yrotation
			JOINT RightAnkle
			{
				OFFSET 0.000000 0.000000 -16.993797
				CHANNELS 6 Xposition Yposition Zposition Zrotation Xrotation Yrotation
				End Site
				{
					OFFSET 0.000000 -8.842300 0.000000
				}
			}
		}
	}
}
MOTION
Frames: 6
Frame Time: 0.041667
-14.968396 12.260504 34.055191 2442.564166 1.090106 -0.034706 -0.201600 0.334102 6.453204 13.285136 7.011811 -0.739237 0.000002 0.000004 3.567996 -2.186920 -2.011621 -0.532448 0.000001 0.000003 8.296396 174.467934 -169.448538 173.774424 -0.000003 0.000000 2.173907 -1.691431 -1.228853 -3.603176 1.927603 0.221405 6.048995 -15.589992 -0.832766 -0.984071 4.959701 0.000001 0.000007 193.106127 147.647776 156.233050 0.000001 0.000002 -8.654198 7.419137 -7.425330 6.976034 -0.000001 -0.000001 -13.864103 4196.830171 -162.241500 176.763738 -3.155707 -0.765001 6.687798 39.486782 3.301796 -2.620423 -3.592900 -0.000001 0.000000 -158.401226 210.834730 247.713203 -0.000002 0.000002 -10.352398 -395.077239 -52.884444 -342.150759 0.000003 -0.000003 -12.750293 110.354772 -3.951938 3.289718 2.460598 -0.518103 -2.735505 -337.453255 -20.202306 -5.840960 -0.000002 -0.000002 -17.005899 69.848178 153.137732 -91.478978 -0.000003 0.000004 -19.194401 586.183008 143.816750 215.879494 -3.115499 -0.679597 -2.320301 -412.628913 -44.163020 -43.822702 -0.000005 -0.000006 -17.680401 -395.423202 186.251541 -263.675136 -0.000001 -0.000002 -16.993793 1017.114943 15.039125 -397.782048
-14.847902 12.222803 33.620987 2442.365708 1.297768 -0.046094 -0.201601 0.334094 6.453197 13.471051 6.787573 -0.758897 -0.000001 0.000001 3.568000 -2.223085 -2.027274 -0.536934 0.000003 0.000001 8.296398 174.036881 -169.458004 174.140714 -0.000002 0.000001 2.173899 -1.704153 -1.199156 -3.653736 1.927603 0.221405 6.048999 -15.595122 -0.805540 -0.853991 4.959701 0.000004 -0.000001 193.369158 147.525871 155.849371 0.000001 0.000001 -8.654199 9.064981 -6.899025 6.847949 -0.000001 0.000000 -13.864096 4197.815467 -164.396711 176.841152 -3.155702 -0.765003 6.687800 39.635325 3.455143 -2.668646 -3.592902 -0.000005 -0.000002 -158.483803 211.030975 247.815109 -0.000006 0.000002 -10.352392 -394.798321 -53.719165 -341.895692 0.000001 0.000003 -12.750299 110.243713 -4.066518 2.668649 2.460600 -0.518101 -2.735502 -335.807179 -21.366696 -4.982534 0.000001 -0.000002 -17.005896 67.257084 153.646430 -89.400373 -0.000001 0.000000 -19.194399 586.163665 143.841598 214.687749 -3.115498 -0.679595 -2.320303 -414.920523 -44.761290 -46.090031 -0.000007 -0.000003 -17.680395 -394.914899 186.989597 -265.050245 -0.000001 -0.000000 -16.993797 1017.519290 14.972980 -398.307208
-14.728200 12.187605 33.186192 2442.264075 1.437926 -0.052084 -0.201597 0.334095 6.453203 13.542220 6.753572 -0.797751 0.000001 -0.000001 3.568001 -2.252610 -2.106058 -0.550864 0.000000 0.000002 8.296389 173.832235 -169.292987 174.297917 -0.000001 0.000000 2.173900 -1.910169 -1.290281 -3.626038 1.927603 0.221403 6.048988 -15.551955 -0.858164 -0.791146 4.959702 -0.000002 0.000012 193.317576 147.267116 155.697085 0.000001 -0.000005 -8.654202 7.872079 -7.276111 7.024706 0.000005 -0.000001 -13.864100 4198.080806 -164.336974 176.794570 -3.155706 -0.765002 6.687793 39.522326 3.349941 -2.703540 -3.592903 -0.000006 0.000004 -158.154328 210.914944 247.762325 -0.000015 0.000000 -10.352386 -393.758001 -54.368166 -340.669700 0.000003 0.000006 -12.750301 109.768803 -4.484922 2.489037 2.460598 -0.518101 -2.735502 -333.968001 -22.498638 -4.010300 -0.000002 -0.000002 -17.005896 64.471330 154.161700 -87.320868 -0.000005 0.000002 -19.194397 585.871115 143.883044 214.970983 -3.115493 -0.679598 -2.320299 -417.402750 -45.252121 -48.465960 -0.000008 -0.000006 -17.680397 -394.415339 187.694404 -266.536712 0.000002 0.000001 -16.993801 1017.757308 14.913703 -398.594677
-14.599298 12.141207 32.754196 2442.178616 1.545284 -0.405511 -0.201599 0.334097 6.453209 13.558250 6.884381 -0.480374 0.000003 0.000000 3.567998 -2.235993 -2.208945 -0.562029 0.000000 0.000001 8.296398 173.073128 -169.121044 174.675955 0.000002 -0.000002 2.173898 -1.688109 -1.263559 -3.788389 1.927600 0.221404 6.049002 -15.555850 -0.903798 -0.685190 4.959703 0.000004 0.000002 193.426873 147.078165 155.386886 0.000000 -0.000004 -8.654196 7.014925 -7.694498 7.261992 0.000003 -0.000001 -13.864108 4197.702687 -164.408882 176.445096 -3.155704 -0.765007 6.687806 39.439384 3.318114 -2.707201 -3.592904 -0.000003 0.000006 -157.887773 210.652883 247.785111 -0.000010 -0.000004 -10.352390 -393.365730 -55.209273 -339.892343 0.000000 0.000001 -12.750294 109.582189 -4.320272 1.740667 2.460599 -0.518104 -2.735502 -332.211522 -23.323486 -2.747170 -0.000004 -0.000001 -17.005894 62.113556 154.351333 -85.323071 -0.000002 0.000003 -19.194397 585.709868 143.804988 214.221589 -3.115495 -0.679598 -2.320296 -419.557484 -45.940795 -50.468944 -0.000008 -0.000001 -17.680395 -393.864470 188.416956 -268.175903 0.000000 -0.000001 -16.993793 1017.905715 14.282632 -399.559455
-14.473696 12.104805 32.318092 2442.145831 1.659284 -0.421498 -0.201602 0.334098 6.453203 13.515985 6.920032 -0.491884 0.000000 0.000004 3.567999 -2.469155 -2.285240 -0.542368 -0.000000 -0.000000 8.296404 172.430325 -168.786597 174.899684 0.000002 0.000001 2.173907 -1.540313 -1.111417 -3.946419 1.927601 0.221404 6.049005 -15.262281 -0.934298 -0.727500 4.959702 -0.000001 0.000000 193.604471 146.874353 155.095004 -0.000003 -0.000002 -8.654198 5.939620 -8.244475 7.581186 0.000004 -0.000000 -13.864096 4196.812249 -164.522195 175.263364 -3.155707 -0.765004 6.687807 39.595310 3.245492 -2.709896 -3.592908 0.000001 0.000002 -157.666789 210.575415 247.715689 -0.000004 0.000002 -10.352398 -392.687520 -56.051053 -339.000429 0.000004 -0.000001 -12.750299 109.482175 -4.419748 1.099429 2.460596 -0.518102 -2.735508 -330.806716 -24.243096 -1.906976 0.000001 0.000002 -17.005899 60.030485 155.028383 -83.439804 -0.000004 0.000005 -19.194397 585.405951 144.061435 214.615308 -3.115497 -0.679602 -2.320313 -422.296799 -46.128902 -53.005154 -0.000006 -0.000003 -17.680399 -393.069846 189.435174 -269.788210 0.000002 -0.000000 -16.993795 1017.995764 13.560985 -400.722554
-14.348997 12.046202 31.895294 2442.150639 1.803447 -0.660811 -0.201603 0.334093 6.453209 13.336300 6.988759 -0.295283 0.000000 0.000004 3.568000 -2.411023 -2.392604 -0.556411 -0.000000 -0.000001 8.296398 171.771198 -168.481875 175.078198 -0.000003 0.000005 2.173899 -1.544433 -1.117169 -4.008359 1.927603 0.221404 6.048992 -15.264377 -0.904383 -0.592742 4.959702 0.000003 0.000009 193.799965 146.633862 154.722595 0.000002 0.000003 -8.654197 4.620707 -8.974155 7.904968 0.000002 -0.000001 -13.864100 4196.619474 -164.303834 175.212575 -3.155703 -0.765000 6.687805 39.582804 3.406645 -2.652213 -3.592900 -0.000001 0.000004 -157.439863 210.642720 247.737464 0.000005 -0.000006 -10.352398 -391.870875 -56.873011 -338.008058 -0.000001 0.000002 -12.750306 109.054202 -4.477458 0.282696 2.460598 -0.518104 -2.735505 -329.314210 -24.979933 -0.791451 0.000000 -0.000003 -17.005896 58.046281 155.256825 -81.609996 -0.000004 0.000001 -19.194397 585.430649 144.072213 214.153027 -3.115495 -0.679604 -2.320306 -424.914401 -46.570709 -55.394876 -0.000009 -0.000008 -17.680401 -392.480401 190.433542 -271.271946 0.000002 0.000004 -16.993795 1018.087125 13.203448 -401.808390
